<?xml version="1.0" encoding="utf-8"?>
<svg version="1.1" xmlns:xlink="http://www.w3.org/1999/xlink" width="120px" height="120px" xmlns="http://www.w3.org/2000/svg">
  <g transform="matrix(1 0 0 1 -130 -100 )">
    <path d="M 190 100  C 223.6 100  250 126.4  250 160  C 250 193.6  223.6 220  190 220  C 156.4 220  130 193.6  130 160  C 130 126.4  156.4 100  190 100  Z " fill-rule="nonzero" fill="#ffffff" stroke="none" />
    <path d="M 190 100.5  C 223.32 100.5  249.5 126.68  249.5 160  C 249.5 193.32  223.32 219.5  190 219.5  C 156.68 219.5  130.5 193.32  130.5 160  C 130.5 126.68  156.68 100.5  190 100.5  Z " stroke-width="1" stroke="#797979" fill="none" />
  </g>
</svg>