<?xml version="1.0" encoding="utf-8"?>
<svg version="1.1" xmlns:xlink="http://www.w3.org/1999/xlink" width="80px" height="80px" xmlns="http://www.w3.org/2000/svg">
  <g transform="matrix(1 0 0 1 -10 -10 )">
    <path d="M 50 10  C 72.4 10  90 27.6  90 50  C 90 72.4  72.4 90  50 90  C 27.6 90  10 72.4  10 50  C 10 27.6  27.6 10  50 10  Z " fill-rule="nonzero" fill="#ffffff" stroke="none" />
    <path d="M 50 10.5  C 72.12 10.5  89.5 27.88  89.5 50  C 89.5 72.12  72.12 89.5  50 89.5  C 27.88 89.5  10.5 72.12  10.5 50  C 10.5 27.88  27.88 10.5  50 10.5  Z " stroke-width="1" stroke="#797979" fill="none" />
  </g>
</svg>