<?xml version="1.0" encoding="utf-8"?>
<svg version="1.1" xmlns:xlink="http://www.w3.org/1999/xlink" width="50px" height="50px" xmlns="http://www.w3.org/2000/svg">
  <g transform="matrix(1 0 0 1 -20 -50 )">
    <path d="M 45 50  C 59 50  70 61  70 75  C 70 89  59 100  45 100  C 31 100  20 89  20 75  C 20 61  31 50  45 50  Z " fill-rule="nonzero" fill="#ffffff" stroke="none" />
    <path d="M 45 50.5  C 58.72 50.5  69.5 61.28  69.5 75  C 69.5 88.72  58.72 99.5  45 99.5  C 31.28 99.5  20.5 88.72  20.5 75  C 20.5 61.28  31.28 50.5  45 50.5  Z " stroke-width="1" stroke="#797979" fill="none" />
  </g>
</svg>