<?xml version="1.0" encoding="utf-8"?>
<svg version="1.1" xmlns:xlink="http://www.w3.org/1999/xlink" width="100px" height="100px" xmlns="http://www.w3.org/2000/svg">
  <g transform="matrix(1 0 0 1 -130 -60 )">
    <path d="M 180 60  C 208 60  230 82  230 110  C 230 138  208 160  180 160  C 152 160  130 138  130 110  C 130 82  152 60  180 60  Z " fill-rule="nonzero" fill="#ffffff" stroke="none" />
    <path d="M 180 60.5  C 207.72 60.5  229.5 82.28  229.5 110  C 229.5 137.72  207.72 159.5  180 159.5  C 152.28 159.5  130.5 137.72  130.5 110  C 130.5 82.28  152.28 60.5  180 60.5  Z " stroke-width="1" stroke="#797979" fill="none" />
  </g>
</svg>