<?xml version="1.0" encoding="utf-8"?>
<svg version="1.1" xmlns:xlink="http://www.w3.org/1999/xlink" width="70px" height="70px" xmlns="http://www.w3.org/2000/svg">
  <g transform="matrix(1 0 0 1 -20 -100 )">
    <path d="M 55 100  C 74.6 100  90 115.4  90 135  C 90 154.6  74.6 170  55 170  C 35.4 170  20 154.6  20 135  C 20 115.4  35.4 100  55 100  Z " fill-rule="nonzero" fill="#ffffff" stroke="none" />
    <path d="M 55 100.5  C 74.32 100.5  89.5 115.68  89.5 135  C 89.5 154.32  74.32 169.5  55 169.5  C 35.68 169.5  20.5 154.32  20.5 135  C 20.5 115.68  35.68 100.5  55 100.5  Z " stroke-width="1" stroke="#797979" fill="none" />
  </g>
</svg>