<?xml version="1.0" encoding="utf-8"?>
<svg version="1.1" xmlns:xlink="http://www.w3.org/1999/xlink" width="26px" height="31px" xmlns="http://www.w3.org/2000/svg">
  <defs>
    <filter x="7px" y="80px" width="26px" height="31px" filterUnits="userSpaceOnUse" id="filter14">
      <feOffset dx="1" dy="1" in="SourceAlpha" result="shadowOffsetInner" />
      <feGaussianBlur stdDeviation="2.5" in="shadowOffsetInner" result="shadowGaussian" />
      <feComposite in2="shadowGaussian" operator="atop" in="SourceAlpha" result="shadowComposite" />
      <feColorMatrix type="matrix" values="0 0 0 0 0  0 0 0 0 0  0 0 0 0 0  0 0 0 0.698039215686274 0  " in="shadowComposite" />
    </filter>
    <g id="widget15">
      <path d="M 19 104.047096030977  C 16 99.163597557524  11.5 96.2334984734525  11.5 91.35  C 11.5 88.8057142857143  13 84.5  19 84.5  C 25 84.5  26.5 88.8057142857143  26.5 91.35  C 26.5 96.2334984734525  22 99.163597557524  19 104.047096030977  Z " fill-rule="nonzero" fill="#009dd9" stroke="none" />
      <path d="M 19 105  C 15.8 99.75  11 96.6  11 91.35  C 11 88.62  12.6 84  19 84  C 25.4 84  27 88.62  27 91.35  C 27 96.6  22.2 99.75  19 105  Z M 19 103.094192061953  C 21.8 98.5771951150481  26 95.866996946905  26 91.35  C 26 88.9914285714286  24.6 85  19 85  C 13.4 85  12 88.9914285714286  12 91.35  C 12 95.866996946905  16.2 98.5771951150481  19 103.094192061953  Z " fill-rule="nonzero" fill="#ffffff" stroke="none" />
    </g>
  </defs>
  <g transform="matrix(1 0 0 1 -7 -80 )">
    <use xlink:href="#widget15" filter="url(#filter14)" />
    <use xlink:href="#widget15" />
  </g>
</svg>