<?xml version="1.0" encoding="utf-8"?>
<svg version="1.1" xmlns:xlink="http://www.w3.org/1999/xlink" width="30px" height="30px" xmlns="http://www.w3.org/2000/svg">
  <g transform="matrix(1 0 0 1 -100 0 )">
    <path d="M 115 0  C 123.4 0  130 6.6  130 15  C 130 23.4  123.4 30  115 30  C 106.6 30  100 23.4  100 15  C 100 6.6  106.6 0  115 0  Z " fill-rule="nonzero" fill="#ffffff" stroke="none" />
    <path d="M 115 0.5  C 123.12 0.5  129.5 6.88  129.5 15  C 129.5 23.12  123.12 29.5  115 29.5  C 106.88 29.5  100.5 23.12  100.5 15  C 100.5 6.88  106.88 0.5  115 0.5  Z " stroke-width="1" stroke="#797979" fill="none" />
  </g>
</svg>